PathFileType	4	(X/Y/Z)	C:/Users/beibeiliu/ov580/test_trc/User3\sequence.30_training_dense_right.trc
DataRate	CameraRate	NumFrames	NumMarkers	Units	OrigDataRate	OrigDataStartFrame	OrigNumFrames
120	120	8	19	mm	120	1	239
Frame#	Time	ThumbCMC			ThumbMCP			ThumbIP			ThumbTip			IndexMCP			IndexPIP			IndexTip			MiddleMCP			MiddlePIP			MiddleTip			RingMCP			RingPIP			RingTip			PinkyMCP			PinkyPIP			PinkyTip			BackHand1			BackHand2			BackHand3	
		X0	Y0	Z0	X1	Y1	Z1	X2	Y2	Z2	X3	Y3	Z3	X4	Y4	Z4	X5	Y5	Z5	X6	Y6	Z6	X7	Y7	Z7	X8	Y8	Z8	X9	Y9	Z9	X10	Y10	Z10	X11	Y11	Z11	X12	Y12	Z12	X13	Y13	Z13	X14	Y14	Z14	X15	Y15	Z15	X16	Y16	Z16	X17	Y17	Z17	X18	Y18	Z18	
0	0	126.26	-21.6234	35.8796	102.453	-29.3058	12.9939	89.6659	-37.452	-13.4824	81.611	-45.0791	-32.3319	135.686	-11.1749	-41.9433	127.606	-16.6552	-69.7565	119.336	-18.7702	-89.4999	164.201	-11.0137	-48.0638	157.966	-15.0711	-74.8393	157.927	-21.7702	-105.963	182.888	-17.1996	-39.8336	186.008	-18.6045	-65.4985	191.831	-23.584	-92.3633	202.997	-27.1228	-22.2521	215.868	-28.4416	-39.9438	229.102	-28.9208	-55.646	182.384	-6.24892	9.93563	183.653	-1.22987	40.8301	151.027	0.706067	25.5136	
1	0.00833333	123.969	-20.7408	30.9359	106.382	-29.0515	13.9405	91.1903	-36.4476	-14.9729	78.6627	-44.7356	-29.7945	135.509	-11.5524	-41.9274	125.265	-14.5237	-68.8902	122.337	-18.7424	-93.2527	160.347	-10.6762	-47.0442	156.869	-15.2923	-78.8617	156.93	-21.0857	-108.016	180.514	-16.0715	-42.2111	189.833	-18.9574	-62.377	189.977	-23.3603	-92.2455	201.959	-27.594	-22.039	216.241	-28.3802	-41.2169	226.02	-28.8935	-60.8561	181.939	-6.63759	9.88604	183.741	-2.24879	40.2553	150.48	1.95663	22.1694	
2	0.0166667	123.139	-19.8619	36.0155	106.528	-28.0933	11.2526	89.7896	-35.2347	-14.4111	81.8837	-42.9026	-32.0505	136.12	-10.7897	-42.7011	125.219	-13.4458	-65.2673	123.432	-16.917	-90.301	160.543	-10.1397	-52.3879	156.858	-14.2715	-78.7436	157.366	-21.3057	-109.771	183.641	-16.1652	-40.9475	186.068	-17.9596	-62.9463	190.768	-23.9456	-91.2487	202.775	-25.6554	-23.4252	215.456	-29.1194	-39.3293	225.532	-28.6134	-57.3352	183.245	-6.14338	8.50237	187.272	-1.57821	37.2253	152.968	2.66349	23.3761	
3	0.025	122.373	-18.5664	32.8106	104.034	-26.3222	13.7097	90.5386	-33.5922	-16.0592	79.8362	-42.1867	-33.2884	134.695	-9.21393	-40.8317	125.247	-12.9115	-69.7405	124.59	-15.9758	-92.4125	165.194	-9.4652	-50.5325	161.362	-14.1283	-80.0042	160.229	-21.3932	-108.072	182.912	-14.1593	-42.7049	188.536	-17.0639	-67.0522	190.264	-23.7023	-92.1488	202.698	-25.4361	-22.3095	214.083	-28.2672	-38.0451	228.658	-28.7455	-60.8667	181.166	-3.48851	8.23917	185.969	-2.99898	39.9391	149.701	2.70017	19.7062	
4	0.0333333	121.687	-17.5149	31.4759	105.446	-26.1018	12.5833	90.2924	-33.1438	-14.5814	81.453	-42.3689	-34.4155	136.273	-8.83451	-44.7845	125.828	-11.4522	-66.7004	125.131	-16.2732	-91.5934	161.206	-8.36149	-46.9935	159.692	-14.2418	-79.7391	157.72	-19.9076	-106.494	182.376	-15.7062	-37.8576	186.094	-17.0558	-67.7301	191.126	-22.8817	-93.6856	203.699	-26.7549	-19.4243	216.653	-26.9279	-42.1977	228.791	-30.2155	-61.5055	182.036	-4.51392	11.5742	189.335	-1.56468	39.9126	155.354	2.03783	23.6409	
5	0.0416667	122.733	-18.068	30.1429	107.893	-26.5294	11.5725	92.7837	-34.0161	-10.7526	83.2653	-42.1877	-31.5105	133.946	-9.04416	-42.9865	129.968	-12.4378	-69.8059	118.972	-15.4321	-93.9509	164.208	-8.67076	-47.5005	162.846	-13.1117	-76.5617	157.714	-19.7732	-104.995	182.117	-14.7699	-41.5784	189.469	-16.7615	-64.3927	189.134	-22.6711	-89.8008	206.579	-25.8733	-22.2843	214.405	-26.6284	-39.388	231.517	-28.93	-61.9226	186.672	-5.93806	8.81701	186.935	-2.42398	36.9674	155.52	2.11505	19.5524	
6	0.05	125.024	-18.6574	30.8011	104.171	-25.1302	12.7879	88.2071	-32.9077	-13.792	79.6	-42.5173	-31.1237	135.401	-8.91169	-43.6292	124.905	-11.8141	-69.4933	124.579	-15.91	-93.4058	161.647	-7.6298	-48.8176	160.527	-12.994	-76.6961	158.398	-20.3344	-107.078	186.403	-14.4273	-41.2155	190.601	-16.7002	-64.6172	192.789	-22.4215	-89.8683	203.286	-25.7695	-20.6289	219.024	-27.9895	-40.473	231.537	-29.6372	-62.428	183.358	-3.74645	11.4175	184.658	-1.89911	39.1502	153.304	2.24395	20.1419	
7	0.0583333	123.477	-18.4933	35.1474	104.43	-25.0396	12.2578	89.4714	-32.5825	-13.0069	80.0601	-41.0234	-33.6087	133.215	-7.04862	-43.5043	127.613	-11.9235	-71.5091	121.67	-14.7662	-95.6811	163.387	-7.94049	-50.3848	160.489	-12.4934	-78.1114	161.028	-20.2316	-110.995	186.731	-14.5223	-41.6827	191.478	-16.1627	-65.6412	189.939	-20.2517	-89.945	203.069	-25.1652	-19.2034	214.772	-26.4259	-37.9746	231.283	-27.3141	-58.8991	182.675	-2.16081	7.32693	185.058	-0.809337	41.2696	150.722	3.87511	23.3643	
